<?xml version="1.0" encoding="UTF-8" standalone="no"?>
<!-- Created with Inkscape (http://www.inkscape.org/) -->

<svg
   xmlns:dc="http://purl.org/dc/elements/1.1/"
   xmlns:cc="http://creativecommons.org/ns#"
   xmlns:rdf="http://www.w3.org/1999/02/22-rdf-syntax-ns#"
   xmlns:svg="http://www.w3.org/2000/svg"
   xmlns="http://www.w3.org/2000/svg"
   xmlns:sodipodi="http://sodipodi.sourceforge.net/DTD/sodipodi-0.dtd"
   xmlns:inkscape="http://www.inkscape.org/namespaces/inkscape"
   height="6.6673875mm"
   width="6.667388mm"
   viewBox="0 0 23.624603 23.624601"
   id="svg2"
   version="1.1"
   inkscape:version="0.91 r13725"
   inkscape:export-filename="/home/wookie/github/thethreads.ch/favicon.png"
   inkscape:export-xdpi="121.90697"
   inkscape:export-ydpi="121.90697"
   sodipodi:docname="favicon.svg">
  <defs
     id="defs8" />
  <sodipodi:namedview
     pagecolor="#ffffff"
     bordercolor="#666666"
     borderopacity="1"
     objecttolerance="10"
     gridtolerance="10"
     guidetolerance="10"
     inkscape:pageopacity="0"
     inkscape:pageshadow="2"
     inkscape:window-width="1680"
     inkscape:window-height="999"
     id="namedview6"
     showgrid="false"
     fit-margin-top="0"
     fit-margin-left="0"
     fit-margin-right="0"
     fit-margin-bottom="0"
     inkscape:zoom="7.1762364"
     inkscape:cx="13.262695"
     inkscape:cy="7.079849"
     inkscape:window-x="0"
     inkscape:window-y="0"
     inkscape:window-maximized="1"
     inkscape:current-layer="g3217" />
  <metadata
     id="metadata4">
    <rdf:RDF>
      <cc:Work
         rdf:about="">
        <dc:format>image/svg+xml</dc:format>
        <dc:type
           rdf:resource="http://purl.org/dc/dcmitype/StillImage" />
        <dc:title></dc:title>
      </cc:Work>
    </rdf:RDF>
  </metadata>
  <g
     id="g3217"
     transform="matrix(0.70710678,-0.70710678,0.70710678,0.70710678,-153.48211,-53.710229)">
    <path
       sodipodi:type="inkscape:offset"
       inkscape:radius="3.7935753"
       inkscape:original="M 154.02344 53.857422 L 154.02344 75.857422 L 176.02344 75.857422 L 176.02344 53.857422 L 154.02344 53.857422 z "
       style="opacity:1;fill:#000000;fill-opacity:1;stroke:none;stroke-width:3;stroke-linecap:butt;stroke-linejoin:round;stroke-miterlimit:4;stroke-dasharray:none;stroke-dashoffset:0;stroke-opacity:1"
       id="path3238"
       d="m 154.02344,50.064453 a 3.7939546,3.7939546 0 0 0 -3.79297,3.792969 l 0,22 a 3.7939546,3.7939546 0 0 0 3.79297,3.792969 l 22,0 a 3.7939546,3.7939546 0 0 0 3.79297,-3.792969 l 0,-22 a 3.7939546,3.7939546 0 0 0 -3.79297,-3.792969 l -22,0 z"
       transform="matrix(0.56463026,0.56463026,-0.56463026,0.56463026,13.992608,33.414532)"
       inkscape:export-xdpi="178.86462"
       inkscape:export-ydpi="178.86462" />
    <g
       id="g3223"
       transform="matrix(0,-1,1,0,-92.000883,234.03913)"
       inkscape:export-xdpi="178.86462"
       inkscape:export-ydpi="178.86462">
      <g
         transform="matrix(-0.70710678,-0.70710678,0.70710678,-0.70710678,0,0)"
         style="font-style:normal;font-weight:normal;font-size:14px;line-height:125%;font-family:Sans;letter-spacing:0px;word-spacing:0px;fill:#646464;fill-opacity:1;stroke:none;stroke-width:1px;stroke-linecap:butt;stroke-linejoin:miter;stroke-opacity:1"
         id="text3195-3">
        <path
           d="m -160.02978,-70.604847 -0.294,-3.374 -9.422,0 -0.294,3.374 0.658,0 c 0.126,-1.582 0.266,-2.716 2.282,-2.716 l 1.078,0 0,8.134 -2.142,0 0,0.658 c 0.756,-0.042 2.31,-0.042 3.136,-0.042 0.826,0 2.38,0 3.136,0.042 l 0,-0.658 -2.142,0 0,-8.134 1.064,0 c 2.002,0 2.142,1.12 2.282,2.716 l 0.658,0 z"
           style="font-style:normal;font-variant:normal;font-weight:bold;font-stretch:normal;font-family:'Latin Modern Roman';-inkscape-font-specification:'Latin Modern Roman, Bold';fill:#646464;fill-opacity:1"
           id="path3232"
           inkscape:connector-curvature="0" />
      </g>
      <g
         transform="matrix(0.70710678,0.70710678,-0.70710678,0.70710678,0,0)"
         style="font-style:normal;font-weight:normal;font-size:14px;line-height:125%;font-family:Sans;letter-spacing:0px;word-spacing:0px;fill:#ffffff;fill-opacity:1;stroke:none;stroke-width:1px;stroke-linecap:butt;stroke-linejoin:miter;stroke-opacity:1"
         id="text3195">
        <path
           d="m 170.01537,59.111561 -0.294,-3.374 -9.422,0 -0.294,3.374 0.658,0 c 0.126,-1.582 0.266,-2.716 2.282,-2.716 l 1.078,0 0,8.134 -2.142,0 0,0.658 c 0.756,-0.042 2.31,-0.042 3.136,-0.042 0.826,0 2.38,0 3.136,0.042 l 0,-0.658 -2.142,0 0,-8.134 1.064,0 c 2.002,0 2.142,1.12 2.282,2.716 l 0.658,0 z"
           style="font-style:normal;font-variant:normal;font-weight:bold;font-stretch:normal;font-family:'Latin Modern Roman';-inkscape-font-specification:'Latin Modern Roman, Bold';fill:#ffffff;fill-opacity:1"
           id="path3235"
           inkscape:connector-curvature="0" />
      </g>
    </g>
  </g>
</svg>
