<?xml version="1.0" encoding="UTF-8" standalone="no"?>
<!DOCTYPE svg PUBLIC "-//W3C//DTD SVG 1.1//EN" "http://www.w3.org/Graphics/SVG/1.1/DTD/svg11.dtd">
<svg width="100%" height="100%" viewBox="0 0 440 156" version="1.1" xmlns="http://www.w3.org/2000/svg" xmlns:xlink="http://www.w3.org/1999/xlink" xml:space="preserve" xmlns:serif="http://www.serif.com/" style="fill-rule:evenodd;clip-rule:evenodd;stroke-linejoin:round;stroke-miterlimit:1.41421;"><g><path d="M175.77,70.323c-1.219,-2.697 -3.74,-4.698 -7.57,-4.698c-3.829,0 -6.35,2.001 -7.569,4.698c-0.695,1.653 -0.957,2.871 -1.045,4.872l17.229,0c-0.088,-2.001 -0.35,-3.219 -1.045,-4.872Zm-16.185,12.615c0,5.83 3.569,10.093 9.92,10.093c4.959,0 7.395,-1.392 10.266,-4.263l6.873,6.7c-4.611,4.61 -9.047,7.134 -17.227,7.134c-10.701,0 -20.969,-4.873 -20.969,-23.23c0,-14.791 8.006,-23.144 19.751,-23.144c12.617,0 19.75,9.223 19.75,21.664l0,5.046l-28.364,0Z" style="fill:#231f20;fill-rule:nonzero;"/><path d="M212.568,102.08c-9.223,0 -13.139,-6.525 -13.139,-12.964l0,-22.447l-4.785,0l0,-8.613l4.785,0l0,-13.4l11.311,0l0,13.4l8.006,0l0,8.613l-8.006,0l0,21.751c0,2.61 1.219,4.09 3.916,4.09l4.09,0l0,9.57l-6.178,0Z" style="fill:#231f20;fill-rule:nonzero;"/><path d="M255.023,102.08l0,-27.668c0,-6.003 -3.828,-8.004 -7.395,-8.004c-3.568,0 -7.309,2.088 -7.309,8.004l0,27.668l-11.309,0l0,-61.948l11.311,0l0,20.795c3.045,-3.133 6.873,-4.699 10.875,-4.699c9.918,0 15.139,6.96 15.139,16.531l0,29.321l-11.312,0Z" style="fill:#231f20;fill-rule:nonzero;"/><path d="M71.929,100.678l-8.772,0l-16.511,-44.806l11.781,0l9.115,27.693l9.031,-27.693l11.782,0l-16.426,44.806Z" style="fill:#231f20;fill-rule:nonzero;"/><path d="M115.763,51.206c-14.773,0 -26.793,12.11 -26.793,26.995c0,12.461 8.422,22.97 19.83,26.066l0,-0.047c1.611,0.392 3.348,0.567 5.068,0.567c3.651,0 7.235,-0.791 9.401,-1.999c3.404,-1.899 5.703,-4.468 6.832,-7.635c1.207,-3.394 1.082,-6.738 -0.377,-9.938c-0.764,-1.669 -1.971,-3.377 -3.594,-5.079l-3.398,-3.557c-3.403,-3.553 -4.615,-5.223 -5.049,-6.023c-0.496,-0.88 -0.99,-2.205 -0.525,-3.513c0.259,-0.731 1.044,-2.11 3.38,-3.138c1.366,-0.6 2.114,-0.722 2.414,-0.746l0.754,-2.944c-4.119,-1.226 -12.646,-1.104 -16.506,7.929c-1.138,2.659 -1.191,5.555 -0.156,8.376c0.912,2.491 2.852,5.273 5.93,8.503l2.932,3.085c2.13,2.227 2.916,3.362 3.195,3.916c0.537,1.081 0.574,2.234 0.115,3.526c-0.426,1.194 -1.045,1.938 -2.209,2.653c-0.646,0.396 -4.105,2.304 -8.848,0.935l0,0.002c-8.773,-3.128 -15.06,-11.489 -15.06,-21.334c0,-12.518 10.146,-22.666 22.664,-22.666c12.518,0 22.664,10.148 22.664,22.666c0,4.34 -1.223,8.396 -3.34,11.843l3.108,3.29c2.754,-4.241 4.363,-9.304 4.363,-14.74c0,-14.883 -12.021,-26.993 -26.795,-26.993Z" style="fill:#009fe3;fill-rule:nonzero;"/><path d="M295.94,46.973c0,-1.765 0.05,-3.415 -1.188,-4.653c-0.858,-0.858 -1.848,-1.32 -3.283,-1.32c-1.436,0 -2.426,0.462 -3.284,1.32c-1.237,1.238 -1.188,2.888 -1.188,4.653c0,1.766 -0.049,3.416 1.188,4.653c0.858,0.858 1.848,1.32 3.284,1.32c1.435,0 2.425,-0.462 3.283,-1.32c1.238,-1.237 1.188,-2.887 1.188,-4.653Zm-2.887,0c0,2.145 -0.165,2.525 -0.429,2.871c-0.215,0.281 -0.627,0.528 -1.155,0.528c-0.528,0 -0.941,-0.247 -1.155,-0.528c-0.264,-0.346 -0.429,-0.726 -0.429,-2.871c0,-2.145 0.165,-2.541 0.429,-2.887c0.214,-0.281 0.627,-0.512 1.155,-0.512c0.528,0 0.94,0.231 1.155,0.512c0.264,0.346 0.429,0.742 0.429,2.887Z" style="fill:#231f20;fill-rule:nonzero;"/><path d="M304.586,44.697c-0.61,-0.611 -1.204,-0.825 -2.079,-0.825c-0.924,0 -1.699,0.429 -2.095,0.825l0,-0.726l-2.64,0l0,8.877l2.706,0l0,-5.313c0,-1.007 0.726,-1.221 1.089,-1.221c0.462,0 0.709,0.198 0.973,0.462l2.046,-2.079Z" style="fill:#231f20;fill-rule:nonzero;"/><path d="M312.308,52.204l0,-8.233l-2.623,0l0,0.726c-0.545,-0.545 -1.073,-0.825 -1.98,-0.825c-0.858,0 -1.584,0.28 -2.096,0.792c-0.808,0.808 -0.825,1.798 -0.825,3.415c0,1.617 0.017,2.607 0.825,3.416c0.512,0.511 1.221,0.792 2.079,0.792c0.825,0 1.419,-0.248 1.914,-0.743l0,0.644c0,0.577 -0.297,1.353 -1.435,1.353c-0.611,0 -1.106,-0.149 -1.518,-0.561l-1.683,1.683c0.907,0.907 1.947,1.155 3.333,1.155c2.425,0 4.009,-1.518 4.009,-3.614Zm-2.706,-4.125c0,0.908 -0.066,1.766 -1.056,1.766c-0.99,0 -1.056,-0.858 -1.056,-1.766c0,-0.907 0.066,-1.765 1.056,-1.765c0.99,0 1.056,0.858 1.056,1.765Z" style="fill:#231f20;fill-rule:nonzero;"/><path d="M321.301,52.848l0,-5.759c0,-2.161 -1.37,-3.217 -3.911,-3.217c-1.501,0 -2.326,0.28 -3.234,1.188l1.683,1.683c0.429,-0.429 0.726,-0.594 1.419,-0.594c0.941,0 1.337,0.297 1.337,1.105l0,0.231l-1.799,0c-2.112,0 -3.019,1.238 -3.019,2.574c0,0.825 0.264,1.568 0.775,2.079c0.495,0.495 1.238,0.792 2.129,0.792c0.94,0 1.435,-0.264 1.98,-0.808l0,0.726l2.64,0Zm-2.706,-3.333c0,0.429 -0.066,0.709 -0.264,0.891c-0.297,0.28 -0.545,0.33 -1.073,0.33c-0.594,0 -0.891,-0.347 -0.891,-0.743c0,-0.412 0.33,-0.709 0.858,-0.709l1.37,0l0,0.231Z" style="fill:#231f20;fill-rule:nonzero;"/><path d="M330.788,52.848l0,-5.676c0,-0.941 -0.132,-1.782 -0.891,-2.541c-0.479,-0.479 -1.155,-0.759 -1.997,-0.759c-0.709,0 -1.518,0.28 -2.062,0.825l0,-0.726l-2.64,0l0,8.877l2.706,0l0,-5.313c0,-1.023 0.726,-1.221 1.089,-1.221c0.363,0 1.089,0.198 1.089,1.221l0,5.313l2.706,0Z" style="fill:#231f20;fill-rule:nonzero;"/><path d="M335.457,52.848l0,-8.531l-2.706,0l0,8.531l2.706,0Zm0,-9.785l0,-2.062l-2.706,0l0,2.062l2.706,0Z" style="fill:#231f20;fill-rule:nonzero;"/><path d="M344.351,49.944c0,-1.419 -0.809,-2.525 -2.673,-2.706l-1.37,-0.132c-0.61,-0.066 -0.577,-0.396 -0.577,-0.495c0,-0.198 0.214,-0.512 0.874,-0.512c0.693,0 1.436,0.083 1.881,0.528l1.667,-1.666c-0.875,-0.875 -2.046,-1.089 -3.498,-1.089c-1.766,0 -3.531,0.973 -3.531,2.937c0,1.732 1.039,2.425 2.574,2.574l1.369,0.132c0.528,0.049 0.644,0.313 0.644,0.561c0,0.462 -0.759,0.577 -1.155,0.577c-0.462,0 -1.419,0 -2.162,-0.742l-1.749,1.749c1.221,1.221 2.525,1.287 3.861,1.287c2.063,0 3.845,-0.908 3.845,-3.003Z" style="fill:#231f20;fill-rule:nonzero;"/><path d="M352.766,52.848l0,-5.759c0,-2.161 -1.37,-3.217 -3.911,-3.217c-1.501,0 -2.326,0.28 -3.234,1.188l1.683,1.683c0.429,-0.429 0.726,-0.594 1.419,-0.594c0.941,0 1.337,0.297 1.337,1.105l0,0.231l-1.799,0c-2.112,0 -3.019,1.238 -3.019,2.574c0,0.825 0.264,1.568 0.775,2.079c0.495,0.495 1.238,0.792 2.129,0.792c0.94,0 1.435,-0.264 1.98,-0.808l0,0.726l2.64,0Zm-2.706,-3.333c0,0.429 -0.066,0.709 -0.264,0.891c-0.297,0.28 -0.545,0.33 -1.073,0.33c-0.594,0 -0.891,-0.347 -0.891,-0.743c0,-0.412 0.33,-0.709 0.858,-0.709l1.37,0l0,0.231Z" style="fill:#231f20;fill-rule:nonzero;"/><path d="M358.969,52.848l0,-2.277l-0.858,0c-0.363,0 -0.544,-0.198 -0.544,-0.545l0,-3.63l1.402,0l0,-2.079l-1.402,0l0,-2.541l-2.706,0l0,2.541l-0.809,0l0,2.079l0.809,0l0,3.828c0,1.221 0.792,2.624 2.755,2.624l1.353,0Z" style="fill:#231f20;fill-rule:nonzero;"/><path d="M363.358,52.848l0,-8.531l-2.706,0l0,8.531l2.706,0Zm0,-9.785l0,-2.062l-2.706,0l0,2.062l2.706,0Z" style="fill:#231f20;fill-rule:nonzero;"/><path d="M372.747,48.409c0,-1.732 -0.231,-2.59 -0.974,-3.399c-0.528,-0.561 -1.419,-1.138 -2.854,-1.138c-1.436,0 -2.327,0.577 -2.855,1.138c-0.742,0.809 -0.973,1.667 -0.973,3.399c0,1.749 0.231,2.591 0.973,3.399c0.528,0.561 1.419,1.139 2.855,1.139c1.435,0 2.326,-0.578 2.854,-1.139c0.743,-0.808 0.974,-1.65 0.974,-3.399Zm-2.706,0c0,0.875 -0.05,1.502 -0.396,1.848c-0.165,0.165 -0.396,0.248 -0.726,0.248c-0.33,0 -0.561,-0.083 -0.726,-0.248c-0.347,-0.346 -0.396,-0.973 -0.396,-1.848c0,-0.874 0.049,-1.501 0.396,-1.848c0.165,-0.165 0.396,-0.247 0.726,-0.247c0.33,0 0.561,0.082 0.726,0.247c0.346,0.347 0.396,0.974 0.396,1.848Z" style="fill:#231f20;fill-rule:nonzero;"/><path d="M382.069,52.848l0,-5.676c0,-0.941 -0.132,-1.782 -0.891,-2.541c-0.479,-0.479 -1.155,-0.759 -1.997,-0.759c-0.709,0 -1.518,0.28 -2.062,0.825l0,-0.726l-2.64,0l0,8.877l2.706,0l0,-5.313c0,-1.023 0.726,-1.221 1.089,-1.221c0.363,0 1.089,0.198 1.089,1.221l0,5.313l2.706,0Z" style="fill:#231f20;fill-rule:nonzero;"/><path d="M295.412,57.104l-1.881,0l-2.706,8.547l-2.706,-8.547l-1.848,0l3.861,11.748l1.386,0l3.894,-11.748Z" style="fill:#009fe3;fill-rule:nonzero;"/><path d="M303.613,65.156l0,-0.742c0,-2.376 -1.303,-4.026 -3.547,-4.026c-2.145,0 -3.548,1.567 -3.548,4.273c0,3.185 1.667,4.29 3.762,4.29c1.469,0 2.277,-0.445 3.135,-1.303l-1.072,-1.007c-0.594,0.594 -1.089,0.858 -2.03,0.858c-1.369,0 -2.128,-0.907 -2.128,-2.343l5.428,0Zm-1.666,-1.171l-3.762,0c0.016,-0.512 0.049,-0.759 0.214,-1.139c0.264,-0.627 0.875,-1.056 1.667,-1.056c0.792,0 1.386,0.429 1.65,1.056c0.165,0.38 0.214,0.627 0.231,1.139Z" style="fill:#009fe3;fill-rule:nonzero;"/><path d="M312.275,61.18c-0.577,-0.578 -1.188,-0.792 -1.996,-0.792c-0.941,0 -1.799,0.412 -2.228,1.006l0,-0.907l-1.65,0l0,8.365l1.683,0l0,-5.082c0,-1.155 0.759,-1.881 1.667,-1.881c0.577,0 0.874,0.182 1.254,0.561l1.27,-1.27Z" style="fill:#009fe3;fill-rule:nonzero;"/><path d="M321.367,64.661c0,-1.27 -0.099,-2.689 -0.941,-3.531c-0.462,-0.462 -1.188,-0.742 -2.029,-0.742c-0.891,0 -1.584,0.214 -2.195,0.94l0,-4.224l-1.683,0l0,11.748l1.65,0l0,-0.891c0.627,0.759 1.304,0.99 2.211,0.99c0.842,0 1.584,-0.28 2.046,-0.742c0.842,-0.842 0.941,-2.277 0.941,-3.548Zm-1.683,0c0,1.485 -0.215,2.789 -1.733,2.789c-1.518,0 -1.749,-1.304 -1.749,-2.789c0,-1.485 0.231,-2.772 1.749,-2.772c1.518,0 1.733,1.287 1.733,2.772Z" style="fill:#009fe3;fill-rule:nonzero;"/><path d="M330.508,68.852l0,-5.593c0,-1.898 -1.155,-2.871 -3.449,-2.871c-1.386,0 -2.211,0.28 -3.003,1.204l1.106,1.04c0.462,-0.594 0.907,-0.809 1.831,-0.809c1.304,0 1.832,0.512 1.832,1.568l0,0.594l-2.211,0c-1.914,0 -2.888,1.006 -2.888,2.409c0,0.709 0.231,1.353 0.66,1.798c0.512,0.512 1.205,0.759 2.244,0.759c1.04,0 1.617,-0.247 2.228,-0.858l0,0.759l1.65,0Zm-1.683,-3.019c0,0.594 -0.116,0.99 -0.363,1.237c-0.446,0.429 -0.924,0.479 -1.568,0.479c-1.056,0 -1.534,-0.429 -1.534,-1.188c0,-0.759 0.511,-1.205 1.501,-1.205l1.964,0l0,0.677Z" style="fill:#009fe3;fill-rule:nonzero;"/><path d="M340.425,68.852l0,-5.346c0,-0.94 -0.198,-1.732 -0.842,-2.359c-0.495,-0.479 -1.204,-0.759 -2.062,-0.759c-0.842,0 -1.65,0.313 -2.228,0.94l0,-0.841l-1.65,0l0,8.365l1.683,0l0,-5.098c0,-1.287 0.792,-1.865 1.733,-1.865c0.94,0 1.683,0.561 1.683,1.865l0,5.098l1.683,0Z" style="fill:#009fe3;fill-rule:nonzero;"/><path d="M350.094,68.852l0,-11.748l-1.683,0l0,4.224c-0.611,-0.726 -1.304,-0.94 -2.195,-0.94c-0.841,0 -1.567,0.28 -2.029,0.742c-0.842,0.842 -0.941,2.261 -0.941,3.531c0,1.271 0.099,2.706 0.941,3.548c0.462,0.462 1.204,0.742 2.046,0.742c0.907,0 1.584,-0.231 2.211,-0.99l0,0.891l1.65,0Zm-1.683,-4.191c0,1.485 -0.215,2.789 -1.733,2.789c-1.518,0 -1.749,-1.304 -1.749,-2.789c0,-1.485 0.231,-2.772 1.749,-2.772c1.518,0 1.733,1.287 1.733,2.772Z" style="fill:#009fe3;fill-rule:nonzero;"/><path d="M364.481,68.852l0,-11.748l-1.683,0l0,4.224c-0.611,-0.726 -1.304,-0.94 -2.195,-0.94c-0.841,0 -1.567,0.28 -2.029,0.742c-0.842,0.842 -0.941,2.261 -0.941,3.531c0,1.271 0.099,2.706 0.941,3.548c0.462,0.462 1.204,0.742 2.046,0.742c0.907,0 1.584,-0.231 2.211,-0.99l0,0.891l1.65,0Zm-1.683,-4.191c0,1.485 -0.215,2.789 -1.733,2.789c-1.518,0 -1.749,-1.304 -1.749,-2.789c0,-1.485 0.231,-2.772 1.749,-2.772c1.518,0 1.733,1.287 1.733,2.772Z" style="fill:#009fe3;fill-rule:nonzero;"/><path d="M374.397,65.156l0,-0.742c0,-2.376 -1.303,-4.026 -3.547,-4.026c-2.145,0 -3.548,1.567 -3.548,4.273c0,3.185 1.667,4.29 3.762,4.29c1.469,0 2.277,-0.445 3.135,-1.303l-1.072,-1.007c-0.594,0.594 -1.089,0.858 -2.03,0.858c-1.369,0 -2.128,-0.907 -2.128,-2.343l5.428,0Zm-1.666,-1.171l-3.762,0c0.016,-0.512 0.049,-0.759 0.214,-1.139c0.264,-0.627 0.875,-1.056 1.667,-1.056c0.792,0 1.386,0.429 1.65,1.056c0.165,0.38 0.214,0.627 0.231,1.139Z" style="fill:#009fe3;fill-rule:nonzero;"/><path d="M383.06,61.18c-0.577,-0.578 -1.188,-0.792 -1.996,-0.792c-0.941,0 -1.799,0.412 -2.228,1.006l0,-0.907l-1.65,0l0,8.365l1.683,0l0,-5.082c0,-1.155 0.759,-1.881 1.667,-1.881c0.577,0 0.874,0.182 1.254,0.561l1.27,-1.27Z" style="fill:#009fe3;fill-rule:nonzero;"/><path d="M295.066,82.498c0,-1.007 -0.314,-1.848 -0.957,-2.409c-0.495,-0.446 -1.106,-0.71 -2.195,-0.875l-1.336,-0.198c-0.545,-0.082 -1.023,-0.28 -1.32,-0.544c-0.314,-0.281 -0.446,-0.66 -0.446,-1.089c0,-1.04 0.759,-1.832 2.145,-1.832c0.99,0 1.832,0.215 2.558,0.908l1.138,-1.122c-1.006,-0.941 -2.095,-1.337 -3.646,-1.337c-2.442,0 -3.927,1.403 -3.927,3.449c0,0.957 0.28,1.699 0.858,2.244c0.511,0.478 1.27,0.808 2.227,0.94l1.386,0.198c0.693,0.099 0.99,0.215 1.287,0.495c0.314,0.281 0.462,0.71 0.462,1.221c0,1.139 -0.891,1.799 -2.425,1.799c-1.205,0 -2.145,-0.264 -3.003,-1.122l-1.188,1.171c1.122,1.139 2.392,1.551 4.158,1.551c2.458,0 4.224,-1.287 4.224,-3.448Z" style="fill:#009fe3;fill-rule:nonzero;"/><path d="M301.205,85.847l0,-1.435l-0.693,0c-0.627,0 -0.924,-0.363 -0.924,-0.974l0,-4.521l1.617,0l0,-1.287l-1.617,0l0,-2.541l-1.683,0l0,2.541l-0.957,0l0,1.287l0.957,0l0,4.604c0,1.204 0.726,2.326 2.294,2.326l1.006,0Z" style="fill:#009fe3;fill-rule:nonzero;"/><path d="M310.577,85.847l0,-8.365l-1.683,0l0,5.098c0,1.287 -0.792,1.865 -1.732,1.865c-0.941,0 -1.683,-0.561 -1.683,-1.865l0,-5.098l-1.683,0l0,5.346c0,0.94 0.198,1.732 0.841,2.359c0.495,0.479 1.205,0.759 2.063,0.759c0.841,0 1.65,-0.313 2.227,-0.94l0,0.841l1.65,0Z" style="fill:#009fe3;fill-rule:nonzero;"/><path d="M320.311,85.847l0,-11.748l-1.683,0l0,4.224c-0.611,-0.726 -1.304,-0.94 -2.195,-0.94c-0.841,0 -1.567,0.28 -2.029,0.742c-0.842,0.842 -0.941,2.261 -0.941,3.531c0,1.271 0.099,2.706 0.941,3.548c0.462,0.462 1.204,0.742 2.046,0.742c0.907,0 1.584,-0.231 2.211,-0.99l0,0.891l1.65,0Zm-1.683,-4.191c0,1.485 -0.215,2.789 -1.733,2.789c-1.518,0 -1.749,-1.304 -1.749,-2.789c0,-1.485 0.231,-2.772 1.749,-2.772c1.518,0 1.733,1.287 1.733,2.772Z" style="fill:#009fe3;fill-rule:nonzero;"/><path d="M324.667,85.848l0,-8.366l-1.683,0l0,8.366l1.683,0Zm0.049,-10.016l0,-1.782l-1.782,0l0,1.782l1.782,0Z" style="fill:#009fe3;fill-rule:nonzero;"/><path d="M335.062,82.151l0,-0.742c0,-2.376 -1.303,-4.026 -3.547,-4.026c-2.145,0 -3.548,1.567 -3.548,4.273c0,3.185 1.667,4.29 3.762,4.29c1.469,0 2.277,-0.445 3.135,-1.303l-1.072,-1.007c-0.594,0.594 -1.089,0.858 -2.03,0.858c-1.369,0 -2.128,-0.907 -2.128,-2.343l5.428,0Zm-1.666,-1.171l-3.762,0c0.016,-0.512 0.049,-0.759 0.214,-1.139c0.264,-0.627 0.875,-1.056 1.667,-1.056c0.792,0 1.386,0.429 1.65,1.056c0.165,0.38 0.214,0.627 0.231,1.139Z" style="fill:#009fe3;fill-rule:nonzero;"/><path d="M343.724,78.175c-0.577,-0.578 -1.188,-0.792 -1.996,-0.792c-0.941,0 -1.799,0.412 -2.228,1.006l0,-0.907l-1.65,0l0,8.365l1.683,0l0,-5.082c0,-1.155 0.759,-1.881 1.667,-1.881c0.577,0 0.874,0.182 1.254,0.561l1.27,-1.27Z" style="fill:#009fe3;fill-rule:nonzero;"/><path d="M352.354,82.151l0,-0.742c0,-2.376 -1.303,-4.026 -3.547,-4.026c-2.145,0 -3.548,1.567 -3.548,4.273c0,3.185 1.667,4.29 3.762,4.29c1.469,0 2.277,-0.445 3.135,-1.303l-1.072,-1.007c-0.594,0.594 -1.089,0.858 -2.03,0.858c-1.369,0 -2.128,-0.907 -2.128,-2.343l5.428,0Zm-1.666,-1.171l-3.762,0c0.016,-0.512 0.049,-0.759 0.214,-1.139c0.264,-0.627 0.875,-1.056 1.667,-1.056c0.792,0 1.386,0.429 1.65,1.056c0.165,0.38 0.214,0.627 0.231,1.139Z" style="fill:#009fe3;fill-rule:nonzero;"/><path d="M361.924,85.847l0,-5.346c0,-0.94 -0.198,-1.732 -0.842,-2.359c-0.495,-0.479 -1.204,-0.759 -2.062,-0.759c-0.842,0 -1.65,0.313 -2.228,0.94l0,-0.841l-1.65,0l0,8.365l1.683,0l0,-5.098c0,-1.287 0.792,-1.865 1.733,-1.865c0.94,0 1.683,0.561 1.683,1.865l0,5.098l1.683,0Z" style="fill:#009fe3;fill-rule:nonzero;"/><path d="M371.593,85.847l0,-11.748l-1.683,0l0,4.224c-0.611,-0.726 -1.304,-0.94 -2.195,-0.94c-0.841,0 -1.567,0.28 -2.029,0.742c-0.842,0.842 -0.941,2.261 -0.941,3.531c0,1.271 0.099,2.706 0.941,3.548c0.462,0.462 1.204,0.742 2.046,0.742c0.907,0 1.584,-0.231 2.211,-0.99l0,0.891l1.65,0Zm-1.683,-4.191c0,1.485 -0.215,2.789 -1.733,2.789c-1.518,0 -1.749,-1.304 -1.749,-2.789c0,-1.485 0.231,-2.772 1.749,-2.772c1.518,0 1.733,1.287 1.733,2.772Z" style="fill:#009fe3;fill-rule:nonzero;"/><path d="M381.507,82.151l0,-0.742c0,-2.376 -1.303,-4.026 -3.547,-4.026c-2.145,0 -3.548,1.567 -3.548,4.273c0,3.185 1.667,4.29 3.762,4.29c1.469,0 2.277,-0.445 3.135,-1.303l-1.072,-1.007c-0.594,0.594 -1.089,0.858 -2.03,0.858c-1.369,0 -2.128,-0.907 -2.128,-2.343l5.428,0Zm-1.666,-1.171l-3.762,0c0.016,-0.512 0.049,-0.759 0.214,-1.139c0.264,-0.627 0.875,-1.056 1.667,-1.056c0.792,0 1.386,0.429 1.65,1.056c0.165,0.38 0.214,0.627 0.231,1.139Z" style="fill:#009fe3;fill-rule:nonzero;"/><path d="M391.078,85.847l0,-5.346c0,-0.94 -0.198,-1.732 -0.842,-2.359c-0.495,-0.479 -1.204,-0.759 -2.062,-0.759c-0.842,0 -1.65,0.313 -2.228,0.94l0,-0.841l-1.65,0l0,8.365l1.683,0l0,-5.098c0,-1.287 0.792,-1.865 1.733,-1.865c0.94,0 1.683,0.561 1.683,1.865l0,5.098l1.683,0Z" style="fill:#009fe3;fill-rule:nonzero;"/><path d="M293.68,101.852l0,-5.593c0,-1.898 -1.155,-2.871 -3.449,-2.871c-1.386,0 -2.211,0.28 -3.003,1.204l1.106,1.04c0.462,-0.594 0.907,-0.809 1.831,-0.809c1.304,0 1.832,0.512 1.832,1.568l0,0.594l-2.211,0c-1.914,0 -2.888,1.006 -2.888,2.409c0,0.709 0.231,1.353 0.66,1.798c0.512,0.512 1.205,0.759 2.244,0.759c1.04,0 1.617,-0.247 2.228,-0.858l0,0.759l1.65,0Zm-1.683,-3.019c0,0.594 -0.116,0.99 -0.363,1.237c-0.446,0.429 -0.924,0.479 -1.568,0.479c-1.056,0 -1.534,-0.429 -1.534,-1.188c0,-0.759 0.511,-1.205 1.501,-1.205l1.964,0l0,0.677Z" style="fill:#009fe3;fill-rule:nonzero;"/><path d="M303.597,101.852l0,-5.346c0,-0.94 -0.198,-1.732 -0.842,-2.359c-0.495,-0.479 -1.204,-0.759 -2.062,-0.759c-0.842,0 -1.65,0.313 -2.228,0.94l0,-0.841l-1.65,0l0,8.365l1.683,0l0,-5.098c0,-1.287 0.792,-1.865 1.733,-1.865c0.94,0 1.683,0.561 1.683,1.865l0,5.098l1.683,0Z" style="fill:#009fe3;fill-rule:nonzero;"/><path d="M317.918,101.852l0,-11.748l-1.683,0l0,4.224c-0.611,-0.726 -1.304,-0.94 -2.195,-0.94c-0.841,0 -1.567,0.28 -2.029,0.742c-0.842,0.842 -0.941,2.261 -0.941,3.531c0,1.271 0.099,2.706 0.941,3.548c0.462,0.462 1.204,0.742 2.046,0.742c0.907,0 1.584,-0.231 2.211,-0.99l0,0.891l1.65,0Zm-1.683,-4.191c0,1.485 -0.215,2.789 -1.733,2.789c-1.518,0 -1.749,-1.304 -1.749,-2.789c0,-1.485 0.231,-2.772 1.749,-2.772c1.518,0 1.733,1.287 1.733,2.772Z" style="fill:#009fe3;fill-rule:nonzero;"/><path d="M327.257,98.157l0,-0.743c0,-2.376 -1.304,-4.026 -3.548,-4.026c-2.145,0 -3.547,1.568 -3.547,4.274c0,3.184 1.666,4.29 3.762,4.29c1.468,0 2.277,-0.446 3.135,-1.304l-1.073,-1.006c-0.594,0.594 -1.089,0.858 -2.029,0.858c-1.37,0 -2.129,-0.908 -2.129,-2.343l5.429,0Zm-1.667,-1.172l-3.762,0c0.017,-0.511 0.05,-0.759 0.215,-1.138c0.264,-0.627 0.874,-1.056 1.666,-1.056c0.792,0 1.386,0.429 1.65,1.056c0.165,0.379 0.215,0.627 0.231,1.138Z" style="fill:#009fe3;fill-rule:nonzero;"/><path d="M336.481,94.18c-0.577,-0.578 -1.188,-0.792 -1.996,-0.792c-0.941,0 -1.799,0.412 -2.228,1.006l0,-0.907l-1.65,0l0,8.365l1.683,0l0,-5.082c0,-1.155 0.759,-1.881 1.667,-1.881c0.577,0 0.874,0.182 1.254,0.561l1.27,-1.27Z" style="fill:#009fe3;fill-rule:nonzero;"/><path d="M350.835,101.852l0,-1.6l-5.726,0l0,-3.531l4.884,0l0,-1.584l-4.884,0l0,-3.432l5.726,0l0,-1.601l-7.508,0l0,11.748l7.508,0Z" style="fill:#009fe3;fill-rule:nonzero;"/><path d="M361.511,91.705l0,-1.601l-8.25,0l0,1.601l3.234,0l0,10.147l1.782,0l0,-10.147l3.234,0Z" style="fill:#009fe3;fill-rule:nonzero;"/><path d="M372.582,101.852l0,-11.748l-1.782,0l0,5.016l-4.769,0l0,-5.016l-1.782,0l0,11.748l1.782,0l0,-5.131l4.769,0l0,5.131l1.782,0Z" style="fill:#009fe3;fill-rule:nonzero;"/></g></svg>